<svg width="200" height="200" viewBox="0 0 200 200" fill="none" xmlns="http://www.w3.org/2000/svg">
  <rect width="200" height="200" rx="10" fill="#f0f2f5"/>
  <path d="M100 40C85.7 40 73 52.7 73 67C73 81.3 85.7 94 100 94C114.3 94 127 81.3 127 67C127 52.7 114.3 40 100 40Z" fill="#bfbfbf"/>
  <path d="M65 110C65 110 65 160 100 160C135 160 135 110 135 110" stroke="#bfbfbf" stroke-width="8" stroke-linecap="round"/>
  <path d="M50 70H60M140 70H150" stroke="#bfbfbf" stroke-width="8" stroke-linecap="round"/>
  <path d="M60 50L70 60M130 50L120 60" stroke="#bfbfbf" stroke-width="8" stroke-linecap="round"/>
  <path d="M60 90L70 80M130 90L120 80" stroke="#bfbfbf" stroke-width="8" stroke-linecap="round"/>
  <text x="100" y="185" text-anchor="middle" fill="#999" font-family="Arial" font-size="14">Game Logo</text>
</svg>